<svg width="440" height="505" viewBox="0 0 440 505" fill="none" xmlns="http://www.w3.org/2000/svg">
<g clip-path="url(#clip0)">
<path fill-rule="evenodd" clip-rule="evenodd" d="M437.047 126.178L218.5 0L-0.046875 126.178V378.534L218.5 504.712L437.047 378.534V126.178ZM-0.0466003 126.178V278.859C1.80027 282.993 4.08673 287.126 6.81279 291.259C20.446 312.99 40.8959 323.856 68.1623 323.856C94.8835 323.856 119.287 313.408 141.373 292.513C160.459 274.403 176.41 248.354 189.225 214.364C202.041 180.374 208.448 150.145 208.448 123.677C208.721 106.961 206.403 91.498 201.495 77.289C196.587 63.0801 188.407 50.1249 176.955 38.4234C173.821 35.2208 170.473 32.3417 166.909 29.7861L-0.0466003 126.178Z" fill="#464545"/>
<g filter="url(#filter0_d)">
<path d="M306.788 369.609C306.788 366.076 307.869 363.192 310.032 360.957C312.267 358.722 314.863 357.605 317.818 357.605C322.865 357.605 325.389 359.948 325.389 364.634C325.389 366.725 324.668 368.852 323.226 371.015C321.856 373.178 319.693 374.62 316.737 375.341C319.188 377.359 322.288 378.369 326.037 378.369C326.182 378.369 326.326 378.369 326.47 378.369C329.57 378.369 332.31 377.503 334.689 375.773C337.14 373.971 339.231 371.231 340.961 367.554C342.692 363.877 343.989 360.597 344.855 357.713C345.72 354.829 346.729 351.044 347.883 346.358C349.685 339.148 351.415 332.407 353.074 326.135C356.174 313.446 357.724 305.335 357.724 301.802C357.724 297.405 356.75 293.98 354.804 291.529C352.857 289.077 350.262 287.852 347.017 287.852C342.115 287.852 337.176 290.231 332.202 294.989C327.299 299.676 323.478 306.525 320.738 315.537C320.162 317.339 319.693 318.421 319.332 318.781C319.044 319.142 318.179 319.322 316.737 319.322C314.502 319.322 313.385 318.601 313.385 317.159C313.385 315.645 314.142 313.122 315.656 309.589C317.242 305.984 319.369 302.163 322.036 298.126C324.704 294.088 328.308 290.555 332.851 287.527C337.465 284.499 342.331 282.985 347.45 282.985C357.904 282.985 365.005 287.996 368.754 298.017C370.557 294.629 373.296 291.276 376.973 287.96C380.65 284.644 385.156 282.985 390.491 282.985C394.889 282.985 399.179 284.067 403.361 286.23C407.614 288.32 409.741 291.889 409.741 296.936C409.741 300.757 408.552 303.677 406.172 305.696C403.793 307.642 401.378 308.616 398.927 308.616C396.259 308.616 394.276 307.895 392.979 306.453C391.753 304.939 391.14 303.316 391.14 301.586C391.14 300.865 391.212 300.036 391.357 299.099C391.501 298.089 392.294 296.648 393.736 294.773C395.25 292.826 397.341 291.565 400.008 290.988C397.629 288.897 394.385 287.852 390.275 287.852C381.552 287.852 375.027 295.746 370.701 311.535C367.313 325.883 364.825 336.012 363.239 341.924C360.427 353.892 359.021 361.318 359.021 364.202C359.021 369.393 360.031 373.07 362.049 375.232C364.14 377.323 366.592 378.369 369.403 378.369C374.45 378.369 379.389 376.026 384.219 371.339C389.122 366.581 392.979 359.696 395.791 350.684C396.367 348.881 396.836 347.836 397.196 347.548C397.557 347.187 398.422 347.007 399.792 347.007C402.027 347.007 403.108 347.728 403.036 349.17C403.036 350.467 402.279 352.883 400.765 356.415C399.323 359.876 397.268 363.697 394.601 367.879C392.005 371.988 388.401 375.593 383.786 378.693C379.244 381.793 374.306 383.343 368.971 383.343C365.005 383.343 360.968 382.226 356.859 379.991C352.821 377.756 349.829 373.827 347.883 368.203C342.115 378.224 334.905 383.271 326.254 383.343C320.919 383.343 316.34 382.082 312.519 379.558C308.698 377.035 306.788 373.718 306.788 369.609Z" fill="white"/>
</g>
<g filter="url(#filter1_d)">
<path d="M211.257 260.874C207.504 260.874 204.811 259.872 203.179 257.87C201.547 255.867 200.649 253.613 200.486 251.11C200.486 249.441 200.976 246.937 201.955 243.599C202.934 240.26 204.648 236.338 207.096 231.831C209.544 227.325 213.216 223.069 218.112 219.063C223.008 215.057 228.801 212.136 235.493 210.3L243.326 209.048H246.264C251.65 209.048 254.832 209.132 255.811 209.299C266.093 211.135 274.661 215.558 281.515 222.568C288.37 229.578 293.266 237.34 296.204 245.852C299.141 254.364 300.528 263.628 300.365 273.643C300.365 289.499 296.53 307.609 288.86 327.972C281.189 348.335 271.642 363.941 260.218 374.79C246.998 387.309 232.392 393.568 216.398 393.568C200.078 393.568 187.838 387.058 179.678 374.039C174.618 366.361 172.089 358.684 172.089 351.006V348.252C172.089 328.723 179.188 311.114 193.387 295.424C207.585 279.735 223.334 271.807 240.634 271.64C250.589 271.64 258.096 274.227 263.155 279.401C268.215 284.575 271.56 290.167 273.192 296.176L273.927 293.422C277.191 279.568 278.823 268.135 278.823 259.121C278.823 244.433 275.477 234.085 268.786 228.076C262.095 222.067 254.506 218.979 246.019 218.812C233.289 218.812 223.416 224.154 216.398 234.836C223.089 235.837 226.435 239.176 226.435 244.851C226.435 249.023 224.966 252.695 222.029 255.867C219.091 259.038 215.5 260.707 211.257 260.874ZM267.072 311.448C267.072 300.432 264.706 292.587 259.973 287.913C255.24 283.24 249.691 280.903 243.326 280.903C233.045 280.903 223.987 284.742 216.153 292.42C212.073 297.094 208.891 302.017 206.606 307.192C204.321 312.366 201.628 320.878 198.528 332.729C195.59 344.747 194.121 353.509 194.121 359.017C194.121 374.874 202.281 382.802 218.601 382.802C220.56 382.802 222.029 382.719 223.008 382.552C235.574 380.382 245.693 372.871 253.363 360.019C255.811 355.846 258.667 348.836 261.931 338.988C265.195 329.14 266.909 319.96 267.072 311.448Z" fill="white"/>
<path d="M211.257 260.874C207.504 260.874 204.811 259.872 203.179 257.87C201.547 255.867 200.649 253.613 200.486 251.11C200.486 249.441 200.976 246.937 201.955 243.599C202.934 240.26 204.648 236.338 207.096 231.831C209.544 227.325 213.216 223.069 218.112 219.063C223.008 215.057 228.801 212.136 235.493 210.3L243.326 209.048H246.264C251.65 209.048 254.832 209.132 255.811 209.299C266.093 211.135 274.661 215.558 281.515 222.568C288.37 229.578 293.266 237.34 296.204 245.852C299.141 254.364 300.528 263.628 300.365 273.643C300.365 289.499 296.53 307.609 288.86 327.972C281.189 348.335 271.642 363.941 260.218 374.79C246.998 387.309 232.392 393.568 216.398 393.568C200.078 393.568 187.838 387.058 179.678 374.039C174.618 366.361 172.089 358.684 172.089 351.006V348.252C172.089 328.723 179.188 311.114 193.387 295.424C207.585 279.735 223.334 271.807 240.634 271.64C250.589 271.64 258.096 274.227 263.155 279.401C268.215 284.575 271.56 290.167 273.192 296.176L273.927 293.422C277.191 279.568 278.823 268.135 278.823 259.121C278.823 244.433 275.477 234.085 268.786 228.076C262.095 222.067 254.506 218.979 246.019 218.812C233.289 218.812 223.416 224.154 216.398 234.836C223.089 235.837 226.435 239.176 226.435 244.851C226.435 249.023 224.966 252.695 222.029 255.867C219.091 259.038 215.5 260.707 211.257 260.874ZM267.072 311.448C267.072 300.432 264.706 292.587 259.973 287.913C255.24 283.24 249.691 280.903 243.326 280.903C233.045 280.903 223.987 284.742 216.153 292.42C212.073 297.094 208.891 302.017 206.606 307.192C204.321 312.366 201.628 320.878 198.528 332.729C195.59 344.747 194.121 353.509 194.121 359.017C194.121 374.874 202.281 382.802 218.601 382.802C220.56 382.802 222.029 382.719 223.008 382.552C235.574 380.382 245.693 372.871 253.363 360.019C255.811 355.846 258.667 348.836 261.931 338.988C265.195 329.14 266.909 319.96 267.072 311.448Z" stroke="white"/>
</g>
<path d="M57.8781 106.601C52.6126 106.601 48.8351 105.195 46.5458 102.384C44.2564 99.5724 42.9973 96.4096 42.7683 92.8953C42.7683 90.5525 43.4552 87.0382 44.8288 82.3526C46.2024 77.6669 48.6062 72.1612 52.0402 65.8356C55.4743 59.51 60.6253 53.5357 67.4934 47.9129C74.3614 42.2902 82.4886 38.1902 91.875 35.6131L102.864 33.856H106.985C114.54 33.856 119.004 33.9731 120.377 34.2074C134.8 36.7845 146.819 42.993 156.435 52.8329C166.05 62.6728 172.918 73.5669 177.039 85.5154C181.16 97.4638 183.106 110.467 182.877 124.524C182.877 146.78 177.497 172.2 166.737 200.783C155.977 229.365 142.584 251.271 126.559 266.499C108.015 284.07 87.5252 292.856 65.0895 292.856C42.196 292.856 25.0259 283.719 13.5791 265.445C6.48209 254.668 2.93359 243.891 2.93359 233.114V229.248C2.93359 201.837 12.8923 177.12 32.8097 155.097C52.727 133.075 74.8193 121.946 99.0864 121.712C113.052 121.712 123.583 125.344 130.68 132.606C137.777 139.869 142.47 147.718 144.759 156.152L145.789 152.286C150.368 132.841 152.657 116.792 152.657 104.141C152.657 83.524 147.964 68.9984 138.578 60.5642C129.191 52.13 118.546 47.7958 106.641 47.5615C88.7844 47.5615 74.9338 55.0586 65.0895 70.0527C74.4759 71.4584 79.1691 76.1441 79.1691 84.1097C79.1691 89.9668 77.1087 95.121 72.9878 99.5724C68.867 104.024 63.8304 106.367 57.8781 106.601ZM136.174 177.589C136.174 162.126 132.854 151.115 126.215 144.555C119.576 137.995 111.792 134.715 102.864 134.715C88.441 134.715 75.735 140.103 64.7461 150.88C59.0228 157.44 54.5585 164.352 51.3534 171.614C48.1483 178.877 44.3709 190.826 40.0211 207.46C35.9003 224.328 33.8399 236.628 33.8399 244.359C33.8399 266.616 45.2866 277.745 68.1802 277.745C70.9274 277.745 72.9878 277.628 74.3614 277.393C91.9894 274.348 106.183 263.805 116.943 245.765C120.377 239.908 124.384 230.068 128.963 216.245C133.541 202.423 135.945 189.537 136.174 177.589Z" fill="#0094E8"/>
</g>
<defs>
<filter id="filter0_d" x="302.788" y="282.985" width="110.953" height="108.358" filterUnits="userSpaceOnUse" color-interpolation-filters="sRGB">
<feFlood flood-opacity="0" result="BackgroundImageFix"/>
<feColorMatrix in="SourceAlpha" type="matrix" values="0 0 0 0 0 0 0 0 0 0 0 0 0 0 0 0 0 0 127 0"/>
<feOffset dy="4"/>
<feGaussianBlur stdDeviation="2"/>
<feColorMatrix type="matrix" values="0 0 0 0 0 0 0 0 0 0 0 0 0 0 0 0 0 0 0.25 0"/>
<feBlend mode="normal" in2="BackgroundImageFix" result="effect1_dropShadow"/>
<feBlend mode="normal" in="SourceGraphic" in2="effect1_dropShadow" result="shape"/>
</filter>
<filter id="filter1_d" x="168.089" y="209.048" width="136.289" height="192.52" filterUnits="userSpaceOnUse" color-interpolation-filters="sRGB">
<feFlood flood-opacity="0" result="BackgroundImageFix"/>
<feColorMatrix in="SourceAlpha" type="matrix" values="0 0 0 0 0 0 0 0 0 0 0 0 0 0 0 0 0 0 127 0"/>
<feOffset dy="4"/>
<feGaussianBlur stdDeviation="2"/>
<feColorMatrix type="matrix" values="0 0 0 0 0 0 0 0 0 0 0 0 0 0 0 0 0 0 0.25 0"/>
<feBlend mode="normal" in2="BackgroundImageFix" result="effect1_dropShadow"/>
<feBlend mode="normal" in="SourceGraphic" in2="effect1_dropShadow" result="shape"/>
</filter>
</defs>
</svg>
