<?xml version="1.0" encoding="UTF-8" standalone="no"?>
<svg
   width="2651"
   height="568"
   viewBox="0 0 2651 568"
   fill="none"
   version="1.1"
   id="svg50"
   sodipodi:docname="logo-dark.svg"
   inkscape:version="1.1.1 (3bf5ae0d25, 2021-09-20)"
   xmlns:inkscape="http://www.inkscape.org/namespaces/inkscape"
   xmlns:sodipodi="http://sodipodi.sourceforge.net/DTD/sodipodi-0.dtd"
   xmlns="http://www.w3.org/2000/svg"
   xmlns:svg="http://www.w3.org/2000/svg">
  <sodipodi:namedview
     id="namedview52"
     pagecolor="#ffffff"
     bordercolor="#666666"
     borderopacity="1.0"
     inkscape:pageshadow="2"
     inkscape:pageopacity="0.0"
     inkscape:pagecheckerboard="0"
     showgrid="false"
     inkscape:zoom="0.36641009"
     inkscape:cx="1329.1119"
     inkscape:cy="-40.937737"
     inkscape:window-width="1920"
     inkscape:window-height="1172"
     inkscape:window-x="1920"
     inkscape:window-y="0"
     inkscape:window-maximized="1"
     inkscape:current-layer="svg50" />
  <g
     clip-path="url(#clip0)"
     id="g16">
    <path
       fill-rule="evenodd"
       clip-rule="evenodd"
       d="M 437.047,126.178 218.5,0 -0.046875,126.178 V 378.534 L 218.5,504.712 437.047,378.534 Z m -437.0936003,0 v 152.681 c 1.8468703,4.134 4.1333303,8.267 6.8593903,12.4 13.63321,21.731 34.08311,32.597 61.34951,32.597 26.7212,0 51.1247,-10.448 73.2107,-31.343 19.086,-18.11 35.037,-44.159 47.852,-78.149 12.816,-33.99 19.223,-64.219 19.223,-90.687 0.273,-16.716 -2.045,-32.179 -6.953,-46.388 -4.908,-14.2089 -13.088,-27.1641 -24.54,-38.8656 -3.134,-3.2026 -6.482,-6.0817 -10.046,-8.6373 z"
       fill="#464545"
       id="path2" />
    <g
       filter="url(#filter0_d)"
       id="g6">
      <path
         d="m 306.788,369.609 c 0,-3.533 1.081,-6.417 3.244,-8.652 2.235,-2.235 4.831,-3.352 7.786,-3.352 5.047,0 7.571,2.343 7.571,7.029 0,2.091 -0.721,4.218 -2.163,6.381 -1.37,2.163 -3.533,3.605 -6.489,4.326 2.451,2.018 5.551,3.028 9.3,3.028 0.145,0 0.289,0 0.433,0 3.1,0 5.84,-0.866 8.219,-2.596 2.451,-1.802 4.542,-4.542 6.272,-8.219 1.731,-3.677 3.028,-6.957 3.894,-9.841 0.865,-2.884 1.874,-6.669 3.028,-11.355 1.802,-7.21 3.532,-13.951 5.191,-20.223 3.1,-12.689 4.65,-20.8 4.65,-24.333 0,-4.397 -0.974,-7.822 -2.92,-10.273 -1.947,-2.452 -4.542,-3.677 -7.787,-3.677 -4.902,0 -9.841,2.379 -14.815,7.137 -4.903,4.687 -8.724,11.536 -11.464,20.548 -0.576,1.802 -1.045,2.884 -1.406,3.244 -0.288,0.361 -1.153,0.541 -2.595,0.541 -2.235,0 -3.352,-0.721 -3.352,-2.163 0,-1.514 0.757,-4.037 2.271,-7.57 1.586,-3.605 3.713,-7.426 6.38,-11.463 2.668,-4.038 6.272,-7.571 10.815,-10.599 4.614,-3.028 9.48,-4.542 14.599,-4.542 10.454,0 17.555,5.011 21.304,15.032 1.803,-3.388 4.542,-6.741 8.219,-10.057 3.677,-3.316 8.183,-4.975 13.518,-4.975 4.398,0 8.688,1.082 12.87,3.245 4.253,2.09 6.38,5.659 6.38,10.706 0,3.821 -1.189,6.741 -3.569,8.76 -2.379,1.946 -4.794,2.92 -7.245,2.92 -2.668,0 -4.651,-0.721 -5.948,-2.163 -1.226,-1.514 -1.839,-3.137 -1.839,-4.867 0,-0.721 0.072,-1.55 0.217,-2.487 0.144,-1.01 0.937,-2.451 2.379,-4.326 1.514,-1.947 3.605,-3.208 6.272,-3.785 -2.379,-2.091 -5.623,-3.136 -9.733,-3.136 -8.723,0 -15.248,7.894 -19.574,23.683 -3.388,14.348 -5.876,24.477 -7.462,30.389 -2.812,11.968 -4.218,19.394 -4.218,22.278 0,5.191 1.01,8.868 3.028,11.03 2.091,2.091 4.543,3.137 7.354,3.137 5.047,0 9.986,-2.343 14.816,-7.03 4.903,-4.758 8.76,-11.643 11.572,-20.655 0.576,-1.803 1.045,-2.848 1.405,-3.136 0.361,-0.361 1.226,-0.541 2.596,-0.541 2.235,0 3.316,0.721 3.244,2.163 0,1.297 -0.757,3.713 -2.271,7.245 -1.442,3.461 -3.497,7.282 -6.164,11.464 -2.596,4.109 -6.2,7.714 -10.815,10.814 -4.542,3.1 -9.48,4.65 -14.815,4.65 -3.966,0 -8.003,-1.117 -12.112,-3.352 -4.038,-2.235 -7.03,-6.164 -8.976,-11.788 -5.768,10.021 -12.978,15.068 -21.629,15.14 -5.335,0 -9.914,-1.261 -13.735,-3.785 -3.821,-2.523 -5.731,-5.84 -5.731,-9.949 z"
         fill="#ffffff"
         id="path4" />
    </g>
    <g
       filter="url(#filter1_d)"
       id="g12">
      <path
         d="m 211.257,260.874 c -3.753,0 -6.446,-1.002 -8.078,-3.004 -1.632,-2.003 -2.53,-4.257 -2.693,-6.76 0,-1.669 0.49,-4.173 1.469,-7.511 0.979,-3.339 2.693,-7.261 5.141,-11.768 2.448,-4.506 6.12,-8.762 11.016,-12.768 4.896,-4.006 10.689,-6.927 17.381,-8.763 l 7.833,-1.252 h 2.938 c 5.386,0 8.568,0.084 9.547,0.251 10.282,1.836 18.85,6.259 25.704,13.269 6.855,7.01 11.751,14.772 14.689,23.284 2.937,8.512 4.324,17.776 4.161,27.791 0,15.856 -3.835,33.966 -11.505,54.329 -7.671,20.363 -17.218,35.969 -28.642,46.818 -13.22,12.519 -27.826,18.778 -43.82,18.778 -16.32,0 -28.56,-6.51 -36.72,-19.529 -5.06,-7.678 -7.589,-15.355 -7.589,-23.033 v -2.754 c 0,-19.529 7.099,-37.138 21.298,-52.828 14.198,-15.689 29.947,-23.617 47.247,-23.784 9.955,0 17.462,2.587 22.521,7.761 5.06,5.174 8.405,10.766 10.037,16.775 l 0.735,-2.754 c 3.264,-13.854 4.896,-25.287 4.896,-34.301 0,-14.688 -3.346,-25.036 -10.037,-31.045 -6.691,-6.009 -14.28,-9.097 -22.767,-9.264 -12.73,0 -22.603,5.342 -29.621,16.024 6.691,1.001 10.037,4.34 10.037,10.015 0,4.172 -1.469,7.844 -4.406,11.016 -2.938,3.171 -6.529,4.84 -10.772,5.007 z m 55.815,50.574 c 0,-11.016 -2.366,-18.861 -7.099,-23.535 -4.733,-4.673 -10.282,-7.01 -16.647,-7.01 -10.281,0 -19.339,3.839 -27.173,11.517 -4.08,4.674 -7.262,9.597 -9.547,14.772 -2.285,5.174 -4.978,13.686 -8.078,25.537 -2.938,12.018 -4.407,20.78 -4.407,26.288 0,15.857 8.16,23.785 24.48,23.785 1.959,0 3.428,-0.083 4.407,-0.25 12.566,-2.17 22.685,-9.681 30.355,-22.533 2.448,-4.173 5.304,-11.183 8.568,-21.031 3.264,-9.848 4.978,-19.028 5.141,-27.54 z"
         fill="#ffffff"
         id="path8" />
      <path
         d="m 211.257,260.874 c -3.753,0 -6.446,-1.002 -8.078,-3.004 -1.632,-2.003 -2.53,-4.257 -2.693,-6.76 0,-1.669 0.49,-4.173 1.469,-7.511 0.979,-3.339 2.693,-7.261 5.141,-11.768 2.448,-4.506 6.12,-8.762 11.016,-12.768 4.896,-4.006 10.689,-6.927 17.381,-8.763 l 7.833,-1.252 h 2.938 c 5.386,0 8.568,0.084 9.547,0.251 10.282,1.836 18.85,6.259 25.704,13.269 6.855,7.01 11.751,14.772 14.689,23.284 2.937,8.512 4.324,17.776 4.161,27.791 0,15.856 -3.835,33.966 -11.505,54.329 -7.671,20.363 -17.218,35.969 -28.642,46.818 -13.22,12.519 -27.826,18.778 -43.82,18.778 -16.32,0 -28.56,-6.51 -36.72,-19.529 -5.06,-7.678 -7.589,-15.355 -7.589,-23.033 v -2.754 c 0,-19.529 7.099,-37.138 21.298,-52.828 14.198,-15.689 29.947,-23.617 47.247,-23.784 9.955,0 17.462,2.587 22.521,7.761 5.06,5.174 8.405,10.766 10.037,16.775 l 0.735,-2.754 c 3.264,-13.854 4.896,-25.287 4.896,-34.301 0,-14.688 -3.346,-25.036 -10.037,-31.045 -6.691,-6.009 -14.28,-9.097 -22.767,-9.264 -12.73,0 -22.603,5.342 -29.621,16.024 6.691,1.001 10.037,4.34 10.037,10.015 0,4.172 -1.469,7.844 -4.406,11.016 -2.938,3.171 -6.529,4.84 -10.772,5.007 z m 55.815,50.574 c 0,-11.016 -2.366,-18.861 -7.099,-23.535 -4.733,-4.673 -10.282,-7.01 -16.647,-7.01 -10.281,0 -19.339,3.839 -27.173,11.517 -4.08,4.674 -7.262,9.597 -9.547,14.772 -2.285,5.174 -4.978,13.686 -8.078,25.537 -2.938,12.018 -4.407,20.78 -4.407,26.288 0,15.857 8.16,23.785 24.48,23.785 1.959,0 3.428,-0.083 4.407,-0.25 12.566,-2.17 22.685,-9.681 30.355,-22.533 2.448,-4.173 5.304,-11.183 8.568,-21.031 3.264,-9.848 4.978,-19.028 5.141,-27.54 z"
         stroke="#ffffff"
         id="path10" />
    </g>
    <path
       d="m 57.8781,106.601 c -5.2655,0 -9.043,-1.406 -11.3323,-4.217 -2.2894,-2.8116 -3.5485,-5.9744 -3.7775,-9.4887 0,-2.3428 0.6869,-5.8571 2.0605,-10.5427 1.3736,-4.6857 3.7774,-10.1914 7.2114,-16.517 3.4341,-6.3256 8.5851,-12.2999 15.4532,-17.9227 6.868,-5.6227 14.9952,-9.7227 24.3816,-12.2998 l 10.989,-1.7571 h 4.121 c 7.555,0 12.019,0.1171 13.392,0.3514 14.423,2.5771 26.442,8.7856 36.058,18.6255 9.615,9.8399 16.483,20.734 20.604,32.6825 4.121,11.9484 6.067,24.9516 5.838,39.0086 0,22.256 -5.38,47.676 -16.14,76.259 -10.76,28.582 -24.153,50.488 -40.178,65.716 -18.544,17.571 -39.0338,26.357 -61.4695,26.357 -22.8935,0 -40.0636,-9.137 -51.5104,-27.411 C 6.48209,254.668 2.93359,243.891 2.93359,233.114 v -3.866 c 0,-27.411 9.95871,-52.128 29.87611,-74.151 19.9173,-22.022 42.0096,-33.151 66.2767,-33.385 13.9656,0 24.4966,3.632 31.5936,10.894 7.097,7.263 11.79,15.112 14.079,23.546 l 1.03,-3.866 c 4.579,-19.445 6.868,-35.494 6.868,-48.145 0,-20.617 -4.693,-35.1426 -14.079,-43.5768 -9.387,-8.4342 -20.032,-12.7684 -31.937,-13.0027 -17.8566,0 -31.7072,7.4971 -41.5515,22.4912 9.3864,1.4057 14.0796,6.0914 14.0796,14.057 0,5.8571 -2.0604,11.0113 -6.1813,15.4627 -4.1208,4.4516 -9.1574,6.7946 -15.1097,7.0286 z m 78.2959,70.988 c 0,-15.463 -3.32,-26.474 -9.959,-33.034 -6.639,-6.56 -14.423,-9.84 -23.351,-9.84 -14.423,0 -27.129,5.388 -38.1179,16.165 -5.7233,6.56 -10.1876,13.472 -13.3927,20.734 -3.2051,7.263 -6.9825,19.212 -11.3323,35.846 -4.1208,16.868 -6.1812,29.168 -6.1812,36.899 0,22.257 11.4467,33.386 34.3403,33.386 2.7472,0 4.8076,-0.117 6.1812,-0.352 17.628,-3.045 31.8216,-13.588 42.5816,-31.628 3.434,-5.857 7.441,-15.697 12.02,-29.52 4.578,-13.822 6.982,-26.708 7.211,-38.656 z"
       fill="#0094e8"
       id="path14" />
  </g>
  <defs
     id="defs48">
    <filter
       id="filter0_d"
       x="302.78799"
       y="282.98499"
       width="110.953"
       height="108.358"
       filterUnits="userSpaceOnUse"
       color-interpolation-filters="sRGB">
      <feFlood
         flood-opacity="0"
         result="BackgroundImageFix"
         id="feFlood18" />
      <feColorMatrix
         in="SourceAlpha"
         type="matrix"
         values="0 0 0 0 0 0 0 0 0 0 0 0 0 0 0 0 0 0 127 0"
         id="feColorMatrix20" />
      <feOffset
         dy="4"
         id="feOffset22" />
      <feGaussianBlur
         stdDeviation="2"
         id="feGaussianBlur24" />
      <feColorMatrix
         type="matrix"
         values="0 0 0 0 0 0 0 0 0 0 0 0 0 0 0 0 0 0 0.25 0"
         id="feColorMatrix26" />
      <feBlend
         mode="normal"
         in2="BackgroundImageFix"
         result="effect1_dropShadow"
         id="feBlend28" />
      <feBlend
         mode="normal"
         in="SourceGraphic"
         in2="effect1_dropShadow"
         result="shape"
         id="feBlend30" />
    </filter>
    <filter
       id="filter1_d"
       x="168.089"
       y="209.048"
       width="136.289"
       height="192.52"
       filterUnits="userSpaceOnUse"
       color-interpolation-filters="sRGB">
      <feFlood
         flood-opacity="0"
         result="BackgroundImageFix"
         id="feFlood33" />
      <feColorMatrix
         in="SourceAlpha"
         type="matrix"
         values="0 0 0 0 0 0 0 0 0 0 0 0 0 0 0 0 0 0 127 0"
         id="feColorMatrix35" />
      <feOffset
         dy="4"
         id="feOffset37" />
      <feGaussianBlur
         stdDeviation="2"
         id="feGaussianBlur39" />
      <feColorMatrix
         type="matrix"
         values="0 0 0 0 0 0 0 0 0 0 0 0 0 0 0 0 0 0 0.25 0"
         id="feColorMatrix41" />
      <feBlend
         mode="normal"
         in2="BackgroundImageFix"
         result="effect1_dropShadow"
         id="feBlend43" />
      <feBlend
         mode="normal"
         in="SourceGraphic"
         in2="effect1_dropShadow"
         result="shape"
         id="feBlend45" />
    </filter>
  </defs>
  <text
     xml:space="preserve"
     style="font-style:normal;font-variant:normal;font-weight:normal;font-stretch:normal;font-size:537.88px;line-height:1.25;font-family:FreeMono;-inkscape-font-specification:FreeMono;letter-spacing:0px;word-spacing:0px;fill:#494848;stroke-width:0.80682;fill-opacity:1"
     x="542.65546"
     y="455.65088"
     id="text1949"><tspan
       sodipodi:role="line"
       id="tspan1947"
       x="542.65546"
       y="455.65088"
       style="font-style:normal;font-variant:normal;font-weight:normal;font-stretch:normal;font-size:537.88px;font-family:sans-serif;-inkscape-font-specification:sans-serif;stroke-width:0.80682;fill:#494848;fill-opacity:1">Enzyme</tspan></text>
</svg>
